<svg width="60" height="60" viewBox="0 0 60 60" fill="none" xmlns="http://www.w3.org/2000/svg">
<path fill-rule="evenodd" clip-rule="evenodd" d="M56.7646 2.00931C57.7219 1.93365 58.6576 2.32254 59.2812 3.05584C60 3.90106 60 5.72666 60 9.37718V41.9304C60 47.5552 60.0001 50.3679 58.9102 52.5163C57.9514 54.406 56.4216 55.9425 54.54 56.9054C52.4009 58.0001 49.6005 58 44 58H16C10.3995 58 7.59908 58.0001 5.45996 56.9054C3.5784 55.9425 2.04857 54.406 1.08984 52.5163C-8.85725e-05 50.3679 0 47.5552 0 41.9304V9.37718C5.38401e-10 5.72666 -1.2517e-05 3.90106 0.71875 3.05584C1.34242 2.32254 2.27808 1.93365 3.23535 2.00931C4.3387 2.09652 5.62408 3.3874 8.19434 5.96885L16.5938 14.4048C17.1124 14.9257 17.3722 15.1866 17.6748 15.3729C17.9431 15.538 18.236 15.66 18.542 15.7338C18.8873 15.8171 19.2545 15.8172 19.9883 15.8172H40.0117C40.7455 15.8172 41.1127 15.8171 41.458 15.7338C41.764 15.66 42.0569 15.538 42.3252 15.3729C42.6278 15.1866 42.8876 14.9257 43.4062 14.4048L51.8057 5.96885C54.3759 3.38741 55.6613 2.09652 56.7646 2.00931ZM52.9219 13.2229C52.5541 13.252 52.1253 13.6826 51.2686 14.5431L44.4688 21.3725C44.2959 21.5462 44.2093 21.6331 44.1084 21.6952C44.0189 21.7503 43.9214 21.7912 43.8193 21.8158C43.7042 21.8436 43.5815 21.8433 43.3369 21.8433H16.6631C16.4185 21.8433 16.2958 21.8436 16.1807 21.8158C16.0786 21.7912 15.9811 21.7503 15.8916 21.6952C15.7907 21.6331 15.7041 21.5462 15.5312 21.3725L8.73145 14.5431C7.87469 13.6826 7.44591 13.252 7.07812 13.2229C6.75913 13.1978 6.44707 13.3277 6.23926 13.5721C5.99979 13.8539 6 14.4624 6 15.6789V45.5456C6 47.7956 5.99957 48.9214 6.43555 49.7808C6.81901 50.5366 7.43109 51.1513 8.18359 51.5364C9.03924 51.9743 10.1602 51.9739 12.4004 51.9739H47.5996C49.8398 51.9739 50.9608 51.9743 51.8164 51.5364C52.5689 51.1513 53.181 50.5366 53.5645 49.7808C54.0004 48.9214 54 47.7956 54 45.5456V15.6789C54 14.4624 54.0002 13.8539 53.7607 13.5721C53.5529 13.3277 53.2409 13.1978 52.9219 13.2229Z" fill="#527ACC"/>
<path d="M15 29.4764C15 28.9139 15 28.6326 15.109 28.4178C15.2049 28.2288 15.3578 28.0752 15.546 27.9789C15.7599 27.8694 16.0399 27.8694 16.6 27.8694H19.4C19.9601 27.8694 20.2401 27.8694 20.454 27.9789C20.6422 28.0752 20.7951 28.2288 20.891 28.4178C21 28.6326 21 28.9139 21 29.4764V38.3147C21 38.8772 21 39.1584 20.891 39.3733C20.7951 39.5622 20.6422 39.7159 20.454 39.8122C20.2401 39.9217 19.9601 39.9217 19.4 39.9217H16.6C16.0399 39.9217 15.7599 39.9217 15.546 39.8122C15.3578 39.7159 15.2049 39.5622 15.109 39.3733C15 39.1584 15 38.8772 15 38.3147V29.4764Z" fill="#527ACC"/>
<path d="M33 29.4764C33 28.9139 33 28.6326 33.109 28.4178C33.2049 28.2288 33.3578 28.0752 33.546 27.9789C33.7599 27.8694 34.0399 27.8694 34.6 27.8694H37.4C37.9601 27.8694 38.2401 27.8694 38.454 27.9789C38.6422 28.0752 38.7951 28.2288 38.891 28.4178C39 28.6326 39 28.9139 39 29.4764V38.3147C39 38.8772 39 39.1584 38.891 39.3733C38.7951 39.5622 38.6422 39.7159 38.454 39.8122C38.2401 39.9217 37.9601 39.9217 37.4 39.9217H34.6C34.0399 39.9217 33.7599 39.9217 33.546 39.8122C33.3578 39.7159 33.2049 39.5622 33.109 39.3733C33 39.1584 33 38.8772 33 38.3147V29.4764Z" fill="#527ACC"/>
</svg>
